<?xml version="1.0" encoding="utf-8"?>
<!-- Generator: Adobe Illustrator 18.1.1, SVG Export Plug-In . SVG Version: 6.00 Build 0)  -->
<svg version="1.2" baseProfile="tiny" id="svg2" xmlns:svg="http://www.w3.org/2000/svg"
	 xmlns="http://www.w3.org/2000/svg" xmlns:xlink="http://www.w3.org/1999/xlink" x="0px" y="0px" width="612px" height="792px"
	 viewBox="0 0 612 792" xml:space="preserve">
<rect x="150" y="261" fill="#FFFFFF" width="266" height="222"/>
<rect x="332" y="518" fill="#FFFFFF" width="194" height="111"/>
<rect x="200" y="190" fill="#262622" width="194" height="111"/>
<rect x="161" y="221" fill="#262622" width="202" height="111"/>
<g>
	<polygon fill="#983794" points="344.6,601.3 344.6,639.1 374.8,656 374.8,618.2 	"/>
	<path d="M342.6,599.5c0-0.1,0-0.1,0-0.2C342.6,599.4,342.6,599.5,342.6,599.5z"/>
	<path d="M376.1,658.7C376.1,658.7,376.1,658.7,376.1,658.7C376.1,658.7,376.1,658.7,376.1,658.7z"/>
	<path d="M342.7,599.3c0,0,0-0.1,0.1-0.1C342.7,599.2,342.7,599.2,342.7,599.3z"/>
	<path d="M343.1,598.8c0,0-0.1,0.1-0.1,0.1C343,598.8,343.1,598.8,343.1,598.8C343.1,598.8,343.1,598.8,343.1,598.8z"/>
	<path d="M342.8,599c0,0,0.1-0.1,0.1-0.1C342.9,598.9,342.9,599,342.8,599z"/>
	<path d="M375.8,658.7c-0.1,0-0.2,0-0.3,0C375.6,658.7,375.7,658.7,375.8,658.7z"/>
	<path d="M342.6,639.7c0,0.4,0.2,0.7,0.5,0.9l32.2,18c0.1,0,0.1,0,0.2,0.1c-0.1,0-0.1,0-0.2-0.1c-0.3-0.2-0.5-0.5-0.5-0.9V656
		l-30.2-16.9v-37.8l-1.5-0.8c-0.3-0.2-0.5-0.5-0.5-0.9c0,0,0,0,0,0V639.7z"/>
	<polygon fill="#F64566" points="345.7,599.6 375.8,616.5 402.3,602 372.2,585.2 	"/>
	<path d="M343.1,600.5l1.5,0.8l30.2,16.9v0v-0.6c0-0.4,0.2-0.7,0.5-0.9l28.6-15.3c0.3-0.2,0.7-0.2,1,0c0.3,0.2,0.4,0.4,0.5,0.7
		c0,0,0-0.1,0-0.1c0-0.4-0.2-0.7-0.5-0.9l-32.2-18c-0.3-0.2-0.7-0.2-1,0l-28.6,15.6c0,0,0,0,0,0c0,0-0.1,0.1-0.1,0.1
		c0,0-0.1,0-0.1,0.1c0,0-0.1,0.1-0.1,0.1c0,0-0.1,0.1-0.1,0.1c0,0,0,0.1-0.1,0.1c0,0,0,0.1,0,0.1c0,0.1,0,0.1,0,0.2c0,0,0,0.1,0,0.1
		c0,0,0,0,0,0C342.6,600,342.8,600.3,343.1,600.5z M375.8,616.5l-30.1-16.8l26.5-14.4l30.1,16.8L375.8,616.5z"/>
	<polygon fill="#FEDC00" points="376.8,656.1 403.4,641.8 403.4,603.9 376.8,618.2 	"/>
	<path d="M404.9,601.4c-0.3-0.2-0.7-0.2-1,0l-28.6,15.3c-0.3,0.2-0.5,0.5-0.5,0.9v0.6v0V656v1.7c0,0.4,0.2,0.7,0.5,0.9
		c0.1,0,0.1,0.1,0.2,0.1c0,0,0,0,0.1,0c0.1,0,0.2,0,0.3,0c0.1,0,0.2,0,0.3,0c0,0,0,0,0.1,0c0,0,0.1,0,0.1-0.1l28.6-15.3
		c0.3-0.2,0.5-0.5,0.5-0.9v-40.1c0,0,0-0.1,0-0.1C405.3,601.9,405.2,601.6,404.9,601.4z M403.4,641.8l-26.6,14.3v-37.8l26.6-14.3
		V641.8z"/>
	<polygon fill="#983794" points="411.4,640.9 411.4,678.8 441.6,695.6 441.6,657.8 	"/>
	<path d="M409.6,638.6c0,0,0.1-0.1,0.1-0.1C409.7,638.6,409.7,638.6,409.6,638.6z"/>
	<path d="M409.9,638.4c0,0-0.1,0.1-0.1,0.1C409.8,638.4,409.9,638.4,409.9,638.4C409.9,638.4,409.9,638.4,409.9,638.4z"/>
	<path d="M409.4,639.1c0-0.1,0-0.1,0-0.2C409.4,639,409.4,639.1,409.4,639.1z"/>
	<path d="M442.6,698.4c-0.1,0-0.2,0-0.3,0C442.4,698.3,442.5,698.4,442.6,698.4z"/>
	<path d="M442.9,698.3C442.9,698.3,442.9,698.3,442.9,698.3C442.9,698.3,442.9,698.3,442.9,698.3z"/>
	<path d="M409.5,638.9c0,0,0-0.1,0.1-0.1C409.5,638.8,409.5,638.8,409.5,638.9z"/>
	<path d="M409.4,679.4c0,0.4,0.2,0.7,0.5,0.9l32.2,18c0.1,0,0.1,0,0.2,0.1c-0.1,0-0.1,0-0.2-0.1c-0.3-0.2-0.5-0.5-0.5-0.9v-1.7
		l-30.2-16.9v-37.8l-1.5-0.8c-0.3-0.2-0.5-0.5-0.5-0.9c0,0,0,0,0,0V679.4z"/>
	<polygon fill="#F64566" points="412.5,639.3 442.6,656.1 469.1,641.7 439,624.8 	"/>
	<path d="M409.9,640.1l1.5,0.8l30.2,16.9v0v-0.6c0-0.4,0.2-0.7,0.5-0.9l28.6-15.3c0.3-0.2,0.7-0.2,1,0c0.3,0.2,0.4,0.4,0.5,0.7
		c0,0,0-0.1,0-0.1c0-0.4-0.2-0.7-0.5-0.9l-32.2-18c-0.3-0.2-0.7-0.2-1,0l-28.6,15.6c0,0,0,0,0,0c0,0-0.1,0.1-0.1,0.1
		c0,0-0.1,0-0.1,0.1c0,0-0.1,0.1-0.1,0.1c0,0-0.1,0.1-0.1,0.1c0,0,0,0.1-0.1,0.1c0,0,0,0.1,0,0.1c0,0.1,0,0.1,0,0.2c0,0,0,0.1,0,0.1
		c0,0,0,0,0,0C409.4,639.6,409.6,639.9,409.9,640.1z M442.6,656.1l-30.1-16.8l26.5-14.4l30.1,16.8L442.6,656.1z"/>
	<polygon fill="#FEDC00" points="443.6,695.7 470.2,681.4 470.2,643.6 443.6,657.8 	"/>
	<path d="M471.7,641c-0.3-0.2-0.7-0.2-1,0l-28.6,15.3c-0.3,0.2-0.5,0.5-0.5,0.9v0.6v0v37.8v1.7c0,0.4,0.2,0.7,0.5,0.9
		c0.1,0,0.1,0.1,0.2,0.1c0,0,0,0,0.1,0c0.1,0,0.2,0,0.3,0c0.1,0,0.2,0,0.3,0c0,0,0.1,0,0.1,0c0,0,0.1,0,0.1-0.1l28.6-15.3
		c0.3-0.2,0.5-0.5,0.5-0.9v-40.1c0,0,0-0.1,0-0.1C472.1,641.5,471.9,641.2,471.7,641z M470.2,681.4l-26.6,14.3v-37.8l26.6-14.3
		V681.4z"/>
	<polygon fill="#983794" points="516.8,744.1 516.8,706.3 511,703 486.6,689.4 486.6,727.2 	"/>
	<path d="M516.8,745.8v-1.7l-30.2-16.9v-37.8l-1.5-0.8c-0.3-0.2-0.5-0.5-0.5-0.9c0,0,0,0,0,0v40.1c0,0.4,0.2,0.7,0.5,0.9l32.2,18
		c0.1,0,0.1,0,0.2,0.1c-0.1,0-0.1,0-0.2-0.1C517,746.5,516.8,746.2,516.8,745.8z"/>
	<path d="M518.1,746.7C518.1,746.8,518.1,746.8,518.1,746.7C518.1,746.8,518.1,746.8,518.1,746.7z"/>
	<path d="M517.8,746.8c-0.1,0-0.2,0-0.3,0C517.6,746.8,517.7,746.8,517.8,746.8z"/>
	<path d="M484.8,687.1c0,0,0.1-0.1,0.1-0.1C484.9,687,484.8,687.1,484.8,687.1z"/>
	<path d="M485.1,686.8c0,0-0.1,0.1-0.1,0.1C485,686.9,485.1,686.9,485.1,686.8C485.1,686.8,485.1,686.8,485.1,686.8z"/>
	<path d="M484.7,687.3c0,0,0-0.1,0.1-0.1C484.7,687.2,484.7,687.3,484.7,687.3z"/>
	<path d="M484.6,687.6c0-0.1,0-0.1,0-0.2C484.6,687.5,484.6,687.6,484.6,687.6z"/>
	<polygon points="516.8,706.3 511,703 516.8,706.3 	"/>
	<polygon fill="#F64566" points="487.7,687.7 517.8,704.6 544.3,690.1 514.2,673.3 	"/>
	<path d="M546.9,689.3l-32.2-18c-0.3-0.2-0.7-0.2-1,0l-28.6,15.6c0,0,0,0,0,0c0,0-0.1,0.1-0.1,0.1c0,0-0.1,0-0.1,0.1
		c0,0-0.1,0.1-0.1,0.1c0,0-0.1,0.1-0.1,0.1c0,0,0,0.1-0.1,0.1c0,0,0,0.1,0,0.1c0,0.1,0,0.1,0,0.2c0,0,0,0.1,0,0.1c0,0,0,0,0,0
		c0,0.4,0.2,0.7,0.5,0.9l1.5,0.8L511,703l5.8,3.3v-0.6c0-0.4,0.2-0.7,0.5-0.9l28.6-15.3c0.3-0.2,0.7-0.2,1,0
		c0.3,0.2,0.4,0.4,0.5,0.7c0,0,0-0.1,0-0.1C547.4,689.8,547.2,689.4,546.9,689.3z M517.8,704.6l-30.1-16.8l26.5-14.4l30.1,16.8
		L517.8,704.6z"/>
	<polygon fill="#FEDC00" points="518.8,744.1 545.4,729.9 545.4,692 518.8,706.3 	"/>
	<path d="M546.9,689.5c-0.3-0.2-0.7-0.2-1,0l-28.6,15.3c-0.3,0.2-0.5,0.5-0.5,0.9v0.6v0v37.8v1.7c0,0.4,0.2,0.7,0.5,0.9
		c0.1,0,0.1,0.1,0.2,0.1c0,0,0,0,0.1,0c0.1,0,0.2,0,0.3,0c0.1,0,0.2,0,0.3,0c0,0,0.1,0,0.1,0c0,0,0.1,0,0.1-0.1l28.6-15.3
		c0.3-0.2,0.5-0.5,0.5-0.9v-40.1c0,0,0-0.1,0-0.1C547.3,689.9,547.1,689.7,546.9,689.5z M545.4,729.9l-26.6,14.3v-37.8l26.6-14.3
		V729.9z"/>
</g>
<line fill="none" stroke="#000000" stroke-width="2" stroke-miterlimit="10" x1="60" y1="78" x2="461" y2="347"/>
<g>
	<g>
		<polygon fill="#983794" points="29.6,523.3 29.6,561.1 59.8,578 59.8,540.2 		"/>
		<path d="M61.1,580.7C61.1,580.7,61.1,580.7,61.1,580.7C61.1,580.7,61.1,580.7,61.1,580.7z"/>
		<path d="M27.7,521.3c0,0,0-0.1,0.1-0.1C27.7,521.2,27.7,521.2,27.7,521.3z"/>
		<path d="M27.6,521.5c0-0.1,0-0.1,0-0.2C27.6,521.4,27.6,521.5,27.6,521.5z"/>
		<path d="M27.8,521c0,0,0.1-0.1,0.1-0.1C27.9,520.9,27.9,521,27.8,521z"/>
		<path d="M28.1,520.8c0,0-0.1,0.1-0.1,0.1C28.1,520.8,28.1,520.8,28.1,520.8C28.1,520.8,28.1,520.8,28.1,520.8z"/>
		<path d="M60.8,580.7c-0.1,0-0.2,0-0.3,0C60.6,580.7,60.7,580.7,60.8,580.7z"/>
		<path d="M27.6,561.7c0,0.4,0.2,0.7,0.5,0.9l32.2,18c0.1,0,0.1,0,0.2,0.1c-0.1,0-0.1,0-0.2-0.1c-0.3-0.2-0.5-0.5-0.5-0.9V578
			l-30.2-16.9v-37.8l-1.5-0.8c-0.3-0.2-0.5-0.5-0.5-0.9c0,0,0,0,0,0V561.7z"/>
		<polygon fill="#F64566" points="30.7,521.6 60.8,538.5 87.3,524 57.2,507.2 		"/>
		<path d="M28.1,522.5l1.5,0.8l30.2,16.9v0v-0.6c0-0.4,0.2-0.7,0.5-0.9l28.6-15.3c0.3-0.2,0.7-0.2,1,0c0.3,0.2,0.4,0.4,0.5,0.7
			c0,0,0-0.1,0-0.1c0-0.4-0.2-0.7-0.5-0.9l-32.2-18c-0.3-0.2-0.7-0.2-1,0l-28.6,15.6c0,0,0,0,0,0c0,0-0.1,0.1-0.1,0.1
			c0,0-0.1,0-0.1,0.1c0,0-0.1,0.1-0.1,0.1c0,0-0.1,0.1-0.1,0.1c0,0,0,0.1-0.1,0.1c0,0,0,0.1,0,0.1c0,0.1,0,0.1,0,0.2
			c0,0,0,0.1,0,0.1c0,0,0,0,0,0C27.6,522,27.8,522.3,28.1,522.5z M60.8,538.5l-30.1-16.8l26.5-14.4L87.3,524L60.8,538.5z"/>
		<polygon fill="#FEDC00" points="61.8,578.1 88.4,563.8 88.4,525.9 61.8,540.2 		"/>
		<path d="M89.9,523.4c-0.3-0.2-0.7-0.2-1,0l-28.6,15.3c-0.3,0.2-0.5,0.5-0.5,0.9v0.6v0V578v1.7c0,0.4,0.2,0.7,0.5,0.9
			c0.1,0,0.1,0.1,0.2,0.1c0,0,0,0,0.1,0c0.1,0,0.2,0,0.3,0c0.1,0,0.2,0,0.3,0c0,0,0,0,0.1,0c0.1,0,0.1,0,0.2-0.1l28.6-15.3
			c0.3-0.2,0.5-0.5,0.5-0.9v-40.1c0,0,0-0.1,0-0.1C90.3,523.9,90.2,523.6,89.9,523.4z M88.4,563.8l-26.6,14.3v-37.8l26.6-14.3V563.8
			z"/>
		<polygon fill="#983794" points="96.4,562.9 96.4,600.8 126.6,617.6 126.6,579.8 		"/>
		<path d="M94.5,560.9c0,0,0-0.1,0.1-0.1C94.5,560.8,94.5,560.8,94.5,560.9z"/>
		<path d="M94.6,560.6c0,0,0.1-0.1,0.1-0.1C94.7,560.6,94.7,560.6,94.6,560.6z"/>
		<path d="M94.9,560.4c0,0-0.1,0.1-0.1,0.1C94.8,560.4,94.9,560.4,94.9,560.4C94.9,560.4,94.9,560.4,94.9,560.4z"/>
		<path d="M94.4,561.1c0-0.1,0-0.1,0-0.2C94.4,561,94.4,561.1,94.4,561.1z"/>
		<path d="M127.6,620.4c-0.1,0-0.2,0-0.3,0C127.4,620.3,127.5,620.4,127.6,620.4z"/>
		<path d="M127.9,620.3C127.9,620.3,127.9,620.3,127.9,620.3C127.9,620.3,127.9,620.3,127.9,620.3z"/>
		<path d="M94.4,601.4c0,0.4,0.2,0.7,0.5,0.9l32.2,18c0.1,0,0.1,0,0.2,0.1c-0.1,0-0.1,0-0.2-0.1c-0.3-0.2-0.5-0.5-0.5-0.9v-1.7
			l-30.2-16.9v-37.8l-1.5-0.8c-0.3-0.2-0.5-0.5-0.5-0.9c0,0,0,0,0,0V601.4z"/>
		<polygon fill="#F64566" points="97.5,561.3 127.6,578.1 154.1,563.7 124,546.8 		"/>
		<path d="M94.9,562.1l1.5,0.8l30.2,16.9v0v-0.6c0-0.4,0.2-0.7,0.5-0.9l28.6-15.3c0.3-0.2,0.7-0.2,1,0c0.3,0.2,0.4,0.4,0.5,0.7
			c0,0,0-0.1,0-0.1c0-0.4-0.2-0.7-0.5-0.9l-32.2-18c-0.3-0.2-0.7-0.2-1,0l-28.6,15.6c0,0,0,0,0,0c0,0-0.1,0.1-0.1,0.1
			c0,0-0.1,0-0.1,0.1c0,0-0.1,0.1-0.1,0.1c0,0-0.1,0.1-0.1,0.1c0,0,0,0.1-0.1,0.1c0,0,0,0.1,0,0.1c0,0.1,0,0.1,0,0.2
			c0,0,0,0.1,0,0.1c0,0,0,0,0,0C94.4,561.6,94.6,561.9,94.9,562.1z M127.6,578.1l-30.1-16.8l26.5-14.4l30.1,16.8L127.6,578.1z"/>
		<polygon fill="#FEDC00" points="128.6,617.7 155.2,603.4 155.2,565.6 128.6,579.8 		"/>
		<path d="M156.7,563c-0.3-0.2-0.7-0.2-1,0l-28.6,15.3c-0.3,0.2-0.5,0.5-0.5,0.9v0.6v0v37.8v1.7c0,0.4,0.2,0.7,0.5,0.9
			c0.1,0,0.1,0.1,0.2,0.1c0,0,0,0,0.1,0c0.1,0,0.2,0,0.3,0c0.1,0,0.2,0,0.3,0c0,0,0.1,0,0.1,0c0,0,0.1,0,0.1-0.1l28.6-15.3
			c0.3-0.2,0.5-0.5,0.5-0.9v-40.1c0,0,0-0.1,0-0.1C157.1,563.5,156.9,563.2,156.7,563z M155.2,603.4l-26.6,14.3v-37.8l26.6-14.3
			V603.4z"/>
		<polygon fill="#983794" points="201.8,666.1 201.8,628.3 171.6,611.4 171.6,649.2 		"/>
		<path d="M169.7,609.3c0,0,0-0.1,0.1-0.1C169.7,609.2,169.7,609.3,169.7,609.3z"/>
		<path d="M169.6,609.6c0-0.1,0-0.1,0-0.2C169.6,609.5,169.6,609.6,169.6,609.6z"/>
		<path d="M202.8,668.8c-0.1,0-0.2,0-0.3,0C202.6,668.8,202.7,668.8,202.8,668.8z"/>
		<path d="M169.8,609.1c0,0,0.1-0.1,0.1-0.1C169.9,609,169.8,609.1,169.8,609.1z"/>
		<path d="M203.1,668.7C203.1,668.8,203.1,668.8,203.1,668.7C203.1,668.8,203.1,668.8,203.1,668.7z"/>
		<path d="M170.1,608.8c0,0-0.1,0.1-0.1,0.1C170,608.9,170.1,608.9,170.1,608.8C170.1,608.8,170.1,608.8,170.1,608.8z"/>
		<path d="M201.8,667.8v-1.7l-30.2-16.9v-37.8l-1.5-0.8c-0.3-0.2-0.5-0.5-0.5-0.9c0,0,0,0,0,0v40.1c0,0.4,0.2,0.7,0.5,0.9l32.2,18
			c0.1,0,0.1,0,0.2,0.1c-0.1,0-0.1,0-0.2-0.1C202,668.5,201.8,668.2,201.8,667.8z"/>
		<polygon fill="#F64566" points="172.7,609.7 202.8,626.6 229.3,612.1 199.2,595.3 		"/>
		<path d="M231.9,611.3l-32.2-18c-0.3-0.2-0.7-0.2-1,0l-28.6,15.6c0,0,0,0,0,0c0,0-0.1,0.1-0.1,0.1c0,0-0.1,0-0.1,0.1
			c0,0-0.1,0.1-0.1,0.1c0,0-0.1,0.1-0.1,0.1c0,0,0,0.1-0.1,0.1c0,0,0,0.1,0,0.1c0,0.1,0,0.1,0,0.2c0,0,0,0.1,0,0.1c0,0,0,0,0,0
			c0,0.4,0.2,0.7,0.5,0.9l1.5,0.8l30.2,16.9v0v-0.6c0-0.4,0.2-0.7,0.5-0.9l28.6-15.3c0.3-0.2,0.7-0.2,1,0c0.3,0.2,0.4,0.4,0.5,0.7
			c0,0,0-0.1,0-0.1C232.4,611.8,232.2,611.4,231.9,611.3z M202.8,626.6l-30.1-16.8l26.5-14.4l30.1,16.8L202.8,626.6z"/>
		<polygon fill="#FEDC00" points="203.8,666.1 230.4,651.9 230.4,614 203.8,628.3 		"/>
		<path d="M231.9,611.5c-0.3-0.2-0.7-0.2-1,0l-28.6,15.3c-0.3,0.2-0.5,0.5-0.5,0.9v0.6v0v37.8v1.7c0,0.4,0.2,0.7,0.5,0.9
			c0.1,0,0.1,0.1,0.2,0.1c0,0,0,0,0.1,0c0.1,0,0.2,0,0.3,0c0.1,0,0.2,0,0.3,0c0,0,0.1,0,0.1,0c0,0,0.1,0,0.1-0.1l28.6-15.3
			c0.3-0.2,0.5-0.5,0.5-0.9v-40.1c0,0,0-0.1,0-0.1C232.3,611.9,232.1,611.7,231.9,611.5z M230.4,651.9l-26.6,14.3v-37.8l26.6-14.3
			V651.9z"/>
	</g>
</g>
</svg>
